<?xml version="1.0" encoding="UTF-8"?>
<svg width="1290px" height="1208px" viewBox="0 0 1290 1208" version="1.1" xmlns="http://www.w3.org/2000/svg" xmlns:xlink="http://www.w3.org/1999/xlink">
    <title>farmer-2</title>
    <defs>
        <linearGradient x1="60.8076522%" y1="37.4686331%" x2="30.769741%" y2="-1.65225717%" id="linearGradient-1">
            <stop stop-color="#EFDAA0" offset="0%"></stop>
            <stop stop-color="#D5C087" offset="35.6506808%"></stop>
            <stop stop-color="#AF9B64" offset="74.5180876%"></stop>
            <stop stop-color="#65531F" offset="100%"></stop>
        </linearGradient>
        <linearGradient x1="43.9779354%" y1="80.8779669%" x2="73.4013026%" y2="20.0643729%" id="linearGradient-2">
            <stop stop-color="#EFDAA0" offset="0%"></stop>
            <stop stop-color="#D5C087" offset="35.6506808%"></stop>
            <stop stop-color="#AF9B64" offset="74.5180876%"></stop>
            <stop stop-color="#65531F" offset="100%"></stop>
        </linearGradient>
        <linearGradient x1="41.9110666%" y1="50%" x2="69.1656351%" y2="79.7577751%" id="linearGradient-3">
            <stop stop-color="#EFDAA0" offset="0%"></stop>
            <stop stop-color="#D5C087" offset="35.6506808%"></stop>
            <stop stop-color="#AF9B64" offset="74.5180876%"></stop>
            <stop stop-color="#65531F" offset="100%"></stop>
        </linearGradient>
        <radialGradient cx="64.5943241%" cy="12.599339%" fx="64.5943241%" fy="12.599339%" r="115.293774%" gradientTransform="translate(0.645943,0.125993),scale(1.000000,0.821622),rotate(112.683374),translate(-0.645943,-0.125993)" id="radialGradient-4">
            <stop stop-color="#EFDAA0" offset="0%"></stop>
            <stop stop-color="#D5C087" offset="35.6506808%"></stop>
            <stop stop-color="#AF9B64" offset="74.5180876%"></stop>
            <stop stop-color="#65531F" offset="100%"></stop>
        </radialGradient>
        <radialGradient cx="50%" cy="38.06648%" fx="50%" fy="38.06648%" r="103.979929%" gradientTransform="translate(0.500000,0.380665),scale(0.656475,1.000000),rotate(36.362015),translate(-0.500000,-0.380665)" id="radialGradient-5">
            <stop stop-color="#FFFFFF" offset="0%"></stop>
            <stop stop-color="#DBDFDF" offset="40.1438528%"></stop>
            <stop stop-color="#BDC4C5" offset="63.9765602%"></stop>
            <stop stop-color="#435658" offset="100%"></stop>
        </radialGradient>
        <radialGradient cx="50%" cy="38.06648%" fx="50%" fy="38.06648%" r="101.528203%" gradientTransform="translate(0.500000,0.380665),scale(0.681416,1.000000),rotate(37.387482),translate(-0.500000,-0.380665)" id="radialGradient-6">
            <stop stop-color="#FFFFFF" offset="0%"></stop>
            <stop stop-color="#DBDFDF" offset="40.1438528%"></stop>
            <stop stop-color="#BDC4C5" offset="63.9765602%"></stop>
            <stop stop-color="#435658" offset="100%"></stop>
        </radialGradient>
    </defs>
    <g id="farmer-2" stroke="none" stroke-width="1" fill="none" fill-rule="evenodd">
        <g id="board" transform="translate(101.515901, 608.000000)">
            <polygon id="Path-5" fill="#000000" points="734.484099 371 599.192594 467.085726 598.775788 531 718.372745 425.810325"></polygon>
            <path d="M0,44 C140.943961,96.4140997 270.64406,155.739545 389.100297,221.976337 C507.556534,288.213129 585.684468,371.488168 623.484099,471.801454 L598.775788,531 C507.12382,446.089956 411.445907,364.923289 311.742049,287.5 C162.186263,171.365066 9.87809683,103.849913 9.87809683,103.849913 C9.87809683,103.849913 6.58539789,83.8999423 0,44 Z" id="Path-4-Copy" fill="#172804"></path>
            <path d="M111.796815,0 C188.035154,35.1999268 286.927801,87.2824438 408.474755,156.247551 C530.021708,225.212658 638.69149,297.360496 734.484099,372.691067 L623.621022,478 C512.634134,373.465603 417.935566,293.798937 339.525316,239 C221.909941,156.801595 0.484098569,47.6131941 0.484098569,47.6131941 C0.484098569,47.6131941 37.5883374,31.7421294 111.796815,0 Z" id="Path-4" fill="#283C12"></path>
        </g>
        <g id="arm_right" transform="translate(461.866179, 460.000000)">
            <g id="hand-right" transform="translate(274.864481, 290.635439) rotate(26.000000) translate(-274.864481, -290.635439) translate(65.048575, 93.808630)">
                <path d="M404.646931,166.021474 C359.292684,127.792327 325.296385,112.974429 302.658032,121.567781 C268.700503,134.457809 244.662952,144.103033 244.662952,179.500323 C244.662952,214.897612 226.417994,252.041697 279.676565,273.3848 C332.935137,294.727903 376.35179,315.269348 390.49936,257.989964 C399.931074,219.803708 404.646931,189.147544 404.646931,166.021474 Z" id="palm" fill="#EFDAA0"></path>
                <g id="hammer" transform="translate(209.815906, 196.826809) rotate(-19.000000) translate(-209.815906, -196.826809) translate(39.381309, 47.344043)">
                    <path d="M325.910975,8.77057119 L340.869195,39.5929398 C296.512643,69.2044715 262.469699,99.3102178 238.740363,129.910179 C215.011026,160.51014 197.185168,196.13027 185.262788,236.770571 L112.869195,192.001715 L185.262788,80.0082533 L265.816515,21.9179212 L325.910975,8.77057119 Z" id="Path-3" fill="#000000"></path>
                    <path d="M326.418356,7.84305644 C304.471659,14.9564173 273.273608,33.7510364 232.824203,64.2269139 C192.374797,94.7027913 166.827039,131.627153 156.180927,175 L86.4183559,136.072271 C112.204032,85.7258306 138.173562,53.2641026 164.326948,38.6870869 C190.480333,24.1100712 228.085053,11.2143755 277.141106,2.84217094e-14 L326.418356,7.84305644 Z" id="Path" stroke="#000000" fill="#868686"></path>
                    <path d="M10.5209944,175.063651 L50.3292475,120.150425 C76.8641749,114.518186 104.453114,121.250488 133.096065,140.347333 C176.060492,168.992599 222.897866,212.057383 214.545732,229.144949 C208.977642,240.536659 195.88052,258.563758 175.254366,283.226246 L10.5209944,175.063651 Z" id="Path-2" stroke="#000000" fill="#868686"></path>
                    <ellipse id="Oval" stroke="#979797" fill="#000000" transform="translate(92.978798, 229.430084) rotate(-57.000000) translate(-92.978798, -229.430084) " cx="92.9787982" cy="229.430084" rx="18.3757288" ry="98.1064644"></ellipse>
                </g>
            </g>
            <path d="M514.178802,213.253354 C514.178802,195.787635 504.450432,178.156936 496.415454,165.196633 C488.380476,152.23633 484.70188,142.969471 467.096109,122.33031 C449.490337,101.69115 441.547375,81.3792636 421.379124,66.9487519 C401.210872,52.5182402 365.45448,21.4778593 393.416802,4.95896498 C421.379124,-11.5599293 443.318906,17.3832823 460.638369,30.6335443 C477.957832,43.8838064 502.627373,83.2047175 525.931205,102.767514 C549.235038,122.33031 586.32385,169.429378 586.32385,195.787635 C586.32385,222.145892 599.396286,246.184919 586.32385,264.208953 C579.481915,273.642487 550.611601,284.812534 533.632302,271 C518.17037,258.421832 514.178802,221.577754 514.178802,213.253354 Z" id="shoulder-right" fill="url(#linearGradient-1)"></path>
            <path d="M433.364474,296.68888 C449.490337,296.68888 479.766597,283.522461 496.415454,264.208953 C513.064311,244.895444 514.178802,230.719073 514.178802,213.253354 C514.178802,203.515102 565.147541,181.450315 586.32385,196.53186 C603.127606,208.499318 592.107569,256.234467 586.32385,264.208953 C573.251414,282.232986 583.23616,287.23658 539.825807,314.410419 C496.415454,341.584258 462.542224,345.790357 441.960674,345.790357 C421.379124,345.790357 415.338557,348.845723 408.274714,331.628071 C401.210872,314.410419 417.23861,296.68888 433.364474,296.68888 Z" id="arm-right" fill="#EFDAA0"></path>
        </g>
        <g id="arm_left" transform="translate(200.634201, 407.000000)">
            <g id="hand-left" transform="translate(-0.634201, 228.000000)" fill="#EFDAA0">
                <ellipse id="thumb" cx="76.3376275" cy="21.5318597" rx="41.3051812" ry="21.5318597"></ellipse>
                <g id="Group" transform="translate(6.307231, 60.306761)">
                    <g id="finger-1" transform="translate(41.305181, 26.212699) rotate(-19.000000) translate(-41.305181, -26.212699) ">
                        <ellipse cx="41.3051812" cy="26.2126987" rx="41.3051812" ry="26.2126987"></ellipse>
                    </g>
                </g>
                <g id="Group" transform="translate(56.028106, 83.557745)">
                    <g id="finger-1-copy" transform="translate(25.346361, 47.744558) rotate(49.000000) translate(-25.346361, -47.744558) ">
                        <ellipse id="finger-1" cx="25.3463612" cy="47.7445584" rx="25.3463612" ry="47.7445584"></ellipse>
                    </g>
                </g>
                <g id="Group" transform="translate(122.861887, 111.854522)">
                    <g id="finger-1-copy-2" transform="translate(25.346361, 36.510545) rotate(24.000000) translate(-25.346361, -36.510545) ">
                        <ellipse id="finger-1" cx="25.3463612" cy="36.5105447" rx="25.3463612" ry="36.5105447"></ellipse>
                    </g>
                </g>
                <path d="M207,37.3256146 C173.69311,11.2973253 148.727178,1.20856968 132.102206,7.05934771 C107.164746,15.8355147 89.5122405,22.4024589 89.5122405,46.5026791 C89.5122405,70.6028993 76.1136537,95.8924243 115.225259,110.423862 C154.336864,124.955299 186.22084,138.940928 196.61042,99.9422978 C203.536807,73.9432113 207,53.0709836 207,37.3256146 Z" id="palm"></path>
            </g>
            <path d="M304.531952,42.6822393 C299.963626,51.5880035 296.326898,63.7841532 291.857101,76.8561663 C288.443348,86.8397572 284.543669,97.3342352 279.371932,107.263968 C270.601787,124.102642 276.068324,126.534678 263.342124,140.5 C258.710567,145.582521 250.41953,153.200791 241.696301,160.741041 C231.228142,169.789586 220.137592,178.725778 214.001856,183.032656 C202.869841,190.846592 193.247885,198.175554 185.13599,205.01954 C176.154567,212.597147 166.847504,222.625892 157.214803,235.105776 C135.933604,249.528578 132.67283,262.635845 147.432482,274.427576 C162.192134,286.219306 181.799292,282.144185 206.253956,262.202212 C216.726645,253.299981 224.188585,246.962556 228.639776,243.189936 C241.034078,232.68511 250.72278,224.518347 257.705883,218.689645 C262.83481,214.408599 271.232578,205.993645 280.607737,195.914707 C287.173403,188.856167 294.218437,180.981514 300.955775,173.139119 C314.829303,156.990054 327.398101,140.977766 331.789797,132.509903 C336.407244,123.606758 344.385674,106.998111 351.406712,89.9654769 C358.936896,71.6976834 365.365799,52.9421803 365.365799,42.6822393 C365.365799,22.8560733 363.168958,0 341.359535,0 C319.550112,0 323.243156,6.20551492 304.531952,42.6822393 Z" fill="url(#linearGradient-2)"></path>
        </g>
        <g id="head" transform="translate(270.825867, 53.425765)">
            <path d="M556.049133,35.6836105 C656.60382,77.8867355 718.63507,170.417985 718.63507,237.941423 C718.63507,305.46486 660.01007,499.90236 501.91632,568.74611 C343.82257,637.58986 265.252258,579.230485 179.88507,533.230485 C94.5178826,487.230485 -25.4052913,380.397127 10.9163201,249.167985 C47.2379315,117.938844 106.933274,67.4721456 179.88507,35.6836105 C245.431267,7.12204373 298.002475,0 363.072679,0 C428.142883,0 479.281285,3.46389839 556.049133,35.6836105 Z" fill="#EFDAA0"></path>
            <path d="M314.314758,255.191423 C353.596008,278.050798 401.392883,251.207048 462.596008,216.144548 C523.799133,181.082048 528.955412,132.652327 528.955412,106 C528.955412,79.347673 471.517883,73.164096 415.35382,89.582048 C359.189758,106 334.188629,135.48318 314.314758,170.145895 C294.440886,204.80861 275.033508,232.332048 314.314758,255.191423 Z" id="ear_r" fill="url(#linearGradient-3)"></path>
            <path d="M127.522884,212.105257 C152.674324,235.1969 183.278243,208.080398 222.466068,172.661639 C261.653892,137.24288 264.955412,88.321079 264.955412,61.3979459 C264.955412,34.4748127 228.178666,28.2284062 192.217309,44.813176 C156.255953,61.3979459 140.24795,91.1806958 127.522884,126.195608 C114.797818,161.210521 102.371444,189.013615 127.522884,212.105257 Z" id="ear_r-copy" fill="url(#radialGradient-4)" transform="translate(188.955412, 128.171708) scale(-1, 1) translate(-188.955412, -128.171708) "></path>
            <g id="Group" transform="translate(256.955412, 404.944642)">
                <path d="M272.054658,126.543656 C272.638512,117.108193 265.337808,105.809902 250.152545,92.6487849 C218.408916,65.1364758 197.362893,24.9594848 102.608024,4.80146882 C5.98529078,-15.7539139 0,34.4342813 0,65.6725626 C0,96.9108438 61.0694222,178.6185 146.346105,178.6185 C203.197227,178.6185 245.100078,161.260219 272.054658,126.543656 Z" id="eye=r-top" fill="url(#radialGradient-5)"></path>
                <g transform="translate(46.709631, 86.264941)">
                    <path d="M57.0091709,-12.239816 C61.0695584,-14.8579281 65.3914562,-15.8817443 69.7418626,-14.808818 C78.975108,-12.5316533 86.6813609,-3.4245844 91.5200554,8.82544145 C96.4040702,21.1902038 98.3619759,36.7818577 95.9713465,51.9800505 C93.4681964,67.8935835 89.1504898,81.2480819 82.6783167,90.3582166 C76.85571,98.5540312 69.2841409,103.295327 59.7090005,103.295327 C55.0583336,103.295327 51.1485644,102.172183 47.8898906,100.009481 C44.4991067,97.7591006 41.8164026,94.3882746 39.7238272,90.0164689 C35.1056179,80.3681122 33.3615779,65.8865694 33.3615779,47.7057279 C33.3615779,30.1981781 38.0103657,13.1904147 45.020434,1.25435585 C48.5227907,-4.70911474 52.6117178,-9.40436624 57.0091709,-12.239816 Z" id="Oval" stroke="#979797" fill="#897643" transform="translate(65.175033, 44.032682) rotate(-78.000000) translate(-65.175033, -44.032682) "></path>
                    <path d="M57.521948,76.6297307 C64.3605127,76.6297307 68.2131113,69.5481761 69.8226996,59.3153756 C71.4322879,49.082575 67.1843564,38.320598 60.9195847,36.7755381 C54.6548131,35.2304782 48.5372645,46.2148996 48.5372645,57.8589421 C48.5372645,69.5029846 50.6833834,76.6297307 57.521948,76.6297307 Z" id="Oval-Copy" fill="#3D2F0B" transform="translate(59.351195, 56.629731) rotate(-78.000000) translate(-59.351195, -56.629731) "></path>
                </g>
            </g>
            <g id="Group" transform="translate(2.031491, 302.287441)">
                <g id="eye-r-top-copy" transform="translate(113.000000, 77.000000) scale(-1, 1) rotate(-67.000000) translate(-113.000000, -77.000000) ">
                    <path d="M225.973066,109.10249 C226.458025,100.96749 220.39394,91.2264124 207.780812,79.8792559 C181.414032,56.1588932 163.93286,21.5193872 85.2279095,4.13969548 C4.97148081,-13.582595 0,29.6882983 0,56.6210926 C0,83.5538868 50.7252649,154 121.557478,154 C168.778953,154 203.58415,139.034163 225.973066,109.10249 Z" id="eye=r-top" fill="url(#radialGradient-6)"></path>
                    <g id="cornea-top" transform="translate(38.797786, 74.375279)">
                        <path d="M47.5142658,-8.73962433 C51.0129142,-10.935509 54.7254312,-11.8133292 58.4493861,-10.9518393 C66.3608583,-9.12162029 72.9143648,-1.61033187 76.9886841,8.51992672 C81.1074323,18.760652 82.6898163,31.7008602 80.537618,44.3419404 C78.2834257,57.5820893 74.4869423,68.7085502 68.8636769,76.3208662 C63.8106489,83.1612415 57.2776657,87.1455017 49.0546724,87.2071451 C45.0653527,87.2367221 41.7183188,86.3319411 38.9366771,84.5595261 C36.0451391,82.717087 33.7682026,79.9413876 32.0028949,76.3337343 C28.094338,68.3460513 26.6913152,56.323323 26.8078383,41.2171043 C26.9200587,26.6686906 31.0256352,12.505494 37.1292557,2.54186356 C40.176133,-2.43189899 43.7184269,-6.35721162 47.5142658,-8.73962433 Z" id="Oval" stroke="#979797" fill="#897643" transform="translate(54.149810, 37.964077) rotate(-78.000000) translate(-54.149810, -37.964077) "></path>
                        <path d="M47.5989981,65.4715814 C53.4856937,65.4274521 56.8474901,59.5110124 58.2987072,50.9871921 C59.7499242,42.4633717 56.1623337,33.5368779 50.7794796,32.2916227 C45.3966255,31.0463675 40.0600969,40.2244517 39.9853706,49.9120682 C39.9106444,59.5996847 41.7123026,65.5152258 47.5989981,65.4715814 Z" id="Oval-Copy" fill="#3D2F0B" transform="translate(49.302882, 48.824710) rotate(-78.000000) translate(-49.302882, -48.824710) "></path>
                    </g>
                </g>
            </g>
            <path d="M301.276673,559.922445 C295.795013,548.507851 284.872622,542.741775 255.955412,527.862984 C227.038202,512.984194 187.286215,501.044377 171.959943,501.044377 C156.63367,501.044377 148.101166,521.21332 161.461171,537.698117 C174.821176,554.182914 196.755637,566.631421 228.05369,576.852828 C259.351742,587.074235 286.991366,584.378497 296.561043,576.852828 C306.13072,569.32716 306.758333,571.337039 301.276673,559.922445 Z" id="nose" fill="#713D23"></path>
        </g>
        <g id="NAIL" transform="translate(620.000000, 907.000000)">
            <rect id="Rectangle" fill="#6E8D93" x="30" y="45" width="14" height="29"></rect>
            <ellipse id="Oval" fill="#D8D8D8" cx="37.5" cy="31.5" rx="37.5" ry="26.5"></ellipse>
            <ellipse id="Oval-Copy" fill="#6E8D93" cx="37.5" cy="26.5" rx="37.5" ry="26.5"></ellipse>
        </g>
    </g>
</svg>