<?xml version="1.0" encoding="UTF-8"?>
<svg width="889px" height="946px" viewBox="0 0 889 946" version="1.1" xmlns="http://www.w3.org/2000/svg" xmlns:xlink="http://www.w3.org/1999/xlink">
    <title>farmer_3</title>
    <defs>
        <linearGradient x1="56.0308255%" y1="70.4057942%" x2="51.9051466%" y2="37.3593217%" id="linearGradient-1">
            <stop stop-color="#EFDAA0" offset="0%"></stop>
            <stop stop-color="#D5C087" offset="35.6506808%"></stop>
            <stop stop-color="#AF9B64" offset="74.5180876%"></stop>
            <stop stop-color="#65531F" offset="100%"></stop>
        </linearGradient>
        <radialGradient cx="83.6356289%" cy="29.6336304%" fx="83.6356289%" fy="29.6336304%" r="53.4297399%" gradientTransform="translate(0.836356,0.296336),scale(1.000000,0.639055),rotate(152.905360),scale(1.000000,1.385599),translate(-0.836356,-0.296336)" id="radialGradient-2">
            <stop stop-color="#000000" stop-opacity="0.5" offset="0%"></stop>
            <stop stop-color="#000000" stop-opacity="0.181888459" offset="42.2952396%"></stop>
            <stop stop-color="#000000" stop-opacity="0" offset="100%"></stop>
        </radialGradient>
        <linearGradient x1="43.9785716%" y1="80.8779669%" x2="73.3988304%" y2="20.0643729%" id="linearGradient-3">
            <stop stop-color="#EFDAA0" offset="0%"></stop>
            <stop stop-color="#D5C087" offset="35.6506808%"></stop>
            <stop stop-color="#AF9B64" offset="74.5180876%"></stop>
            <stop stop-color="#65531F" offset="100%"></stop>
        </linearGradient>
        <linearGradient x1="43.3648059%" y1="20.0643729%" x2="54.483716%" y2="100%" id="linearGradient-4">
            <stop stop-color="#EFDAA0" offset="0%"></stop>
            <stop stop-color="#D5C087" offset="35.6506808%"></stop>
            <stop stop-color="#AF9B64" offset="74.5180876%"></stop>
            <stop stop-color="#65531F" offset="100%"></stop>
        </linearGradient>
        <linearGradient x1="67.9282541%" y1="11.005914%" x2="37.2083799%" y2="95.1745468%" id="linearGradient-5">
            <stop stop-color="#EFDAA0" offset="0%"></stop>
            <stop stop-color="#D5C087" offset="35.6506808%"></stop>
            <stop stop-color="#AF9B64" offset="74.5180876%"></stop>
            <stop stop-color="#65531F" offset="100%"></stop>
        </linearGradient>
        <radialGradient cx="50%" cy="38.06648%" fx="50%" fy="38.06648%" r="83.8343012%" gradientTransform="translate(0.500000,0.380665),scale(0.967548,1.000000),rotate(47.337406),translate(-0.500000,-0.380665)" id="radialGradient-6">
            <stop stop-color="#FFFFFF" offset="0%"></stop>
            <stop stop-color="#DBDFDF" offset="40.1438528%"></stop>
            <stop stop-color="#BDC4C5" offset="63.9765602%"></stop>
            <stop stop-color="#435658" offset="100%"></stop>
        </radialGradient>
        <path d="M2.84217094e-14,42.4614239 C0.192811005,19.8010788 10.3417739,-0.642404975 46.6525698,0.0154544497 C82.9633657,0.673313875 121.808477,26.8018857 138.398,55.1478925 C154.987523,83.4938993 167.025883,116.621507 161.744312,132.702831 C156.462741,148.784154 141.130343,166.980574 97.9004712,152.33332 C54.670599,137.686066 24.0922181,109.905105 13.0435096,86.7570747 C1.99480117,63.6090446 3.29126903,56.0201274 2.84217094e-14,42.4614239 Z" id="path-7"></path>
        <radialGradient cx="50%" cy="38.06648%" fx="50%" fy="38.06648%" r="88.126016%" gradientTransform="translate(0.500000,0.380665),scale(0.872889,1.000000),rotate(44.390548),translate(-0.500000,-0.380665)" id="radialGradient-9">
            <stop stop-color="#FFFFFF" offset="0%"></stop>
            <stop stop-color="#DBDFDF" offset="40.1438528%"></stop>
            <stop stop-color="#BDC4C5" offset="63.9765602%"></stop>
            <stop stop-color="#435658" offset="100%"></stop>
        </radialGradient>
        <path d="M0,34.9876599 C0.185711605,16.3090325 10.9186238,0 33.5405626,0 C56.1625014,0 94.2957256,14.1428648 116.226606,41.453044 C138.157487,68.7632233 150.577353,103.17844 145.490253,116.434065 C140.403152,129.68969 121.656316,129.68969 94.2957256,125.553633 C66.9351349,121.417575 23.2051303,90.5806077 12.5632409,71.499988 C1.92135156,52.4193682 3.17008282,46.1639226 0,34.9876599 Z" id="path-10"></path>
    </defs>
    <g id="farmer_3" stroke="none" stroke-width="1" fill="none" fill-rule="evenodd">
        <g id="Group" transform="translate(517.039022, 523.612851)">
            <g id="bunny-1-copy" transform="translate(56.500000, 101.500000) scale(-1, 1) translate(-56.500000, -101.500000) ">
                <ellipse id="Oval" fill="#EEBABA" cx="64.4364081" cy="88.4477701" rx="25.2587594" ry="20.3479257"></ellipse>
                <polygon id="Path-4" fill="#EEBABA" points="49.3120225 66.6835939 34.7638394 12.210875 8.38767435 12.210875 1.42157845e-14 65.5348439 12.8352518 66.6835939 24.6560113 31.0155389 44.4978531 70.8737531"></polygon>
                <polygon id="Path-4-Copy" fill="#EEBABA" transform="translate(91.262055, 34.080348) scale(-1, 1) translate(-91.262055, -34.080348) " points="113 63.9705371 99.3013295 -2.31329133e-14 72.0756518 9.49781825 69.5241099 51.7181991 76.5232293 63.9705371 88.3439887 28.3024821 108.185831 68.1606964"></polygon>
                <ellipse id="Oval" fill="#000000" cx="54.9331125" cy="80.8512112" rx="3.7513009" ry="5.15480785"></ellipse>
                <ellipse id="Oval-Copy-3" fill="#000000" cx="68.6878824" cy="90.8895212" rx="5.00173453" ry="2.17044541"></ellipse>
                <ellipse id="Oval-Copy-2" fill="#000000" cx="77.4409179" cy="79.2233771" rx="3.7513009" ry="5.15480785"></ellipse>
                <ellipse id="Oval" fill="#EEBABA" cx="65.772809" cy="128.327585" rx="25.2587594" ry="26.859262"></ellipse>
                <path d="M5.78616905,182.166097 C11.8689733,189.604199 81.6027298,199.259516 94.0502375,187.604808 C106.497745,175.950099 82.1925657,135.943307 74.6899639,130.49803 C69.6882293,126.867846 60.9351939,128.056426 48.4308576,134.063771 C15.9458624,161.173253 1.7309662,177.207362 5.78616905,182.166097 Z" id="Path-6" fill="#EEBABA"></path>
            </g>
        </g>
        <g id="Group" transform="translate(684.039022, 492.612851)">
            <g id="bunny-1-copy" transform="translate(56.500000, 101.500000) scale(-1, 1) translate(-56.500000, -101.500000) ">
                <ellipse id="Oval" fill="#EEBABA" cx="64.4364081" cy="88.4477701" rx="25.2587594" ry="20.3479257"></ellipse>
                <polygon id="Path-4" fill="#EEBABA" points="49.3120225 66.6835939 34.7638394 12.210875 8.38767435 12.210875 1.42157845e-14 65.5348439 12.8352518 66.6835939 24.6560113 31.0155389 44.4978531 70.8737531"></polygon>
                <polygon id="Path-4-Copy" fill="#EEBABA" transform="translate(91.262055, 34.080348) scale(-1, 1) translate(-91.262055, -34.080348) " points="113 63.9705371 99.3013295 -2.31329133e-14 72.0756518 9.49781825 69.5241099 51.7181991 76.5232293 63.9705371 88.3439887 28.3024821 108.185831 68.1606964"></polygon>
                <ellipse id="Oval" fill="#000000" cx="54.9331125" cy="80.8512112" rx="3.7513009" ry="5.15480785"></ellipse>
                <ellipse id="Oval-Copy-3" fill="#000000" cx="68.6878824" cy="90.8895212" rx="5.00173453" ry="2.17044541"></ellipse>
                <ellipse id="Oval-Copy-2" fill="#000000" cx="77.4409179" cy="79.2233771" rx="3.7513009" ry="5.15480785"></ellipse>
                <ellipse id="Oval" fill="#EEBABA" cx="65.772809" cy="128.327585" rx="25.2587594" ry="26.859262"></ellipse>
                <path d="M5.78616905,182.166097 C11.8689733,189.604199 81.6027298,199.259516 94.0502375,187.604808 C106.497745,175.950099 82.1925657,135.943307 74.6899639,130.49803 C69.6882293,126.867846 60.9351939,128.056426 48.4308576,134.063771 C15.9458624,161.173253 1.7309662,177.207362 5.78616905,182.166097 Z" id="Path-6" fill="#EEBABA"></path>
            </g>
        </g>
        <g id="Group" transform="translate(624.056970, 510.729609)">
            <g id="bunny-1-copy-3" transform="translate(101.451840, 168.000000) scale(-1, 1) translate(-101.451840, -168.000000) ">
                <ellipse id="Oval" fill="#73B0D2" cx="115.702516" cy="146.396309" rx="45.3548248" ry="33.6793254"></ellipse>
                <polygon id="Path-4" fill="#73B0D2" points="88.5450513 110.372845 62.4222205 20.2111035 15.0609733 20.2111035 2.55259733e-14 108.471466 23.047078 110.372845 44.2725257 51.3360644 79.9006912 117.308281"></polygon>
                <polygon id="Path-4-Copy" fill="#73B0D2" transform="translate(163.870856, 56.408852) scale(-1, 1) translate(-163.870856, -56.408852) " points="202.903679 105.882268 178.30624 -3.828896e-14 129.419601 15.7205268 124.838033 85.6025365 137.405706 105.882268 158.631153 46.8454876 194.259319 112.817704"></polygon>
                <ellipse id="Oval" fill="#000000" cx="98.6383242" cy="133.822694" rx="6.73586507" ry="8.53209576"></ellipse>
                <ellipse id="Oval-Copy-3" fill="#000000" cx="123.336496" cy="150.437828" rx="8.98115343" ry="3.59246137"></ellipse>
                <ellipse id="Oval-Copy-2" fill="#000000" cx="139.053515" cy="131.128348" rx="6.73586507" ry="8.53209576"></ellipse>
                <ellipse id="Oval" fill="#73B0D2" cx="118.102168" cy="212.404279" rx="45.3548248" ry="44.4567095"></ellipse>
                <path d="M10.3896902,301.516298 C21.3120208,313.827639 146.526497,329.808854 168.877338,310.518302 C191.22818,291.227751 147.58561,225.009612 134.11388,215.99674 C125.132727,209.988158 109.415708,211.955464 86.9628247,221.898655 C28.6325146,266.769523 3.10813638,293.308737 10.3896902,301.516298 Z" id="Path-6" fill="#73B0D2"></path>
            </g>
        </g>
        <g id="Group" transform="translate(242.276009, 485.729609)">
            <g id="bunny-1-copy-4" transform="translate(68.842320, 114.000000) scale(-1, 1) translate(-68.842320, -114.000000) ">
                <ellipse id="Oval" fill="#73B0D2" cx="78.5124214" cy="99.3403527" rx="30.7764883" ry="22.8538279"></ellipse>
                <polygon id="Path-4" fill="#73B0D2" points="60.084142 74.8958591 42.3579354 13.7146774 10.2199462 13.7146774 1.73211962e-14 73.6056375 15.6390887 74.8958591 30.042071 34.8351865 54.2183261 79.6020478"></polygon>
                <polygon id="Path-4-Copy" fill="#73B0D2" transform="translate(111.198081, 38.277435) scale(-1, 1) translate(-111.198081, -38.277435) " points="137.684639 71.8486821 120.99352 -2.59817943e-14 87.8204436 10.6675003 84.7115222 58.0874355 93.2395861 71.8486821 107.642568 31.7880095 131.818824 76.5548708"></polygon>
                <ellipse id="Oval" fill="#000000" cx="66.9331485" cy="90.8082569" rx="4.57076558" ry="5.78963641"></ellipse>
                <ellipse id="Oval-Copy-3" fill="#000000" cx="83.6926223" cy="102.082812" rx="6.09435411" ry="2.43774165"></ellipse>
                <ellipse id="Oval-Copy-2" fill="#000000" cx="94.357742" cy="88.9799507" rx="4.57076558" ry="5.78963641"></ellipse>
                <ellipse id="Oval" fill="#73B0D2" cx="80.1407566" cy="144.131475" rx="30.7764883" ry="30.1670529"></ellipse>
                <path d="M7.05014689,204.600345 C14.4617284,212.95447 99.4286941,223.798865 114.595337,210.708848 C129.761979,197.618831 100.147378,152.685094 91.0058473,146.569216 C84.9114932,142.491965 74.2463735,143.826922 59.0104882,150.574088 C19.4292063,181.022176 2.10909255,199.030929 7.05014689,204.600345 Z" id="Path-6" fill="#73B0D2"></path>
            </g>
        </g>
        <g id="farmer" transform="translate(103.175443, 71.255181)">
            <g id="legs" transform="translate(128.454745, 431.744819)">
                <path d="M108.921337,247.221752 C80.3422725,241.637731 58.391489,239.812739 36.8146258,247.221752 C22.4300504,252.161094 10.1585085,266.709629 0,290.867359 C30.0365758,298.869533 54.6557868,302.870619 73.8576328,302.870619 C93.0594789,302.870619 118.469794,298.869533 150.088578,290.867359 C148.668225,269.868559 146.340864,257.344591 143.106493,253.295455 C138.254938,247.221752 137.500401,252.805773 108.921337,247.221752 Z" id="foot-left" fill="#162A49"></path>
                <path d="M199.749127,269.837656 C183.06229,283.781249 148.558836,303.436428 143.406887,318.828493 C138.254938,334.220558 136.725196,354.632893 143.406887,363.214674 C150.088578,371.796454 161.551072,379 169.350006,379 C177.14894,379 206.288883,371.837604 221.245758,356.418792 C236.202633,340.99998 248.178271,315.038601 248.178271,302.870619 C248.178271,294.758632 242.623226,280.780061 231.513136,260.934907 C221.461689,257.574344 210.873686,260.541927 199.749127,269.837656 Z" id="foot-right" fill="#162A49"></path>
                <polygon id="body" fill="url(#linearGradient-1)" points="94.3698126 0 267.369813 0 257.950306 94 122.492525 89.8354333"></polygon>
                <path d="M274.192823,268.848004 C278.310756,263.506766 280.369722,259.014585 280.369722,255.37146 C280.369722,249.906773 286.311746,208.850626 283.340734,191.045631 C280.369722,173.240636 281.962217,156.69031 289.597554,137.209462 C294.687778,124.22223 298.214312,108.430887 300.177155,89.8354333 C282.293971,81.5168992 269.892246,77.3576321 262.97198,77.3576321 C252.591582,77.3576321 236.202633,73.0594029 212.587134,77.3576321 C188.971635,81.6558614 162.872099,83.7313423 131.421135,77.3576321 C110.453825,73.108492 94.9982734,70.983922 85.0544804,70.983922 C95.1773195,91.9344869 101.272969,108.209718 103.34143,119.809616 C106.444122,137.209462 105.070527,190.120817 99.9701699,206.137839 C96.5699317,216.815854 91.5980352,225.888689 85.0544804,233.356343 C95.1279398,244.887875 104.364687,252.226248 112.764724,255.37146 C121.16476,258.516673 135.365858,260.71407 155.36802,261.963651 L168.467086,233.356343 L173.330986,278.76921 C188.605774,282.110569 205.008752,283.781249 222.539918,283.781249 C240.071084,283.781249 257.288719,278.803501 274.192823,268.848004 Z" id="pants" fill="#6A723A"></path>
                <path d="M168.467086,233.356343 C165.863678,217.126881 164.561974,207.47452 164.561974,204.399262 C164.561974,201.324004 161.862134,194.299495 156.462454,183.325734 C150.792851,182.359154 146.340864,178.997455 143.106493,173.240636 C139.872123,167.483817 134.97586,161.440987 128.417706,155.112147 C111.449175,180.181947 106.231515,199.490097 112.764724,213.036595 C122.564537,233.356343 143.714701,246.538666 150.088578,246.538666 C154.337829,246.538666 160.463998,242.144558 168.467086,233.356343 Z" id="penis-shadow" fill="url(#radialGradient-2)"></path>
            </g>
            <g id="arm_left" transform="translate(46.165547, 404.113174)">
                <g id="hand-left" transform="translate(-0.000000, 121.631645)" fill="#EFDAA0">
                    <ellipse id="thumb" cx="40.6590107" cy="11.5" rx="22" ry="11.5"></ellipse>
                    <g id="Group" transform="translate(3.359363, 32.209375)">
                        <g id="finger-1" transform="translate(22.000000, 14.000000) rotate(-19.000000) translate(-22.000000, -14.000000) ">
                            <ellipse cx="22" cy="14" rx="22" ry="14"></ellipse>
                        </g>
                    </g>
                    <g id="Group" transform="translate(29.841736, 44.627547)">
                        <g id="finger-1-copy" transform="translate(13.500000, 25.500000) rotate(49.000000) translate(-13.500000, -25.500000) ">
                            <ellipse id="finger-1" cx="13.5" cy="25.5" rx="13.5" ry="25.5"></ellipse>
                        </g>
                    </g>
                    <g id="Group" transform="translate(65.438801, 59.740636)">
                        <g id="finger-1-copy-2" transform="translate(13.500000, 19.500000) rotate(24.000000) translate(-13.500000, -19.500000) ">
                            <ellipse id="finger-1" cx="13.5" cy="19.5" rx="13.5" ry="19.5"></ellipse>
                        </g>
                    </g>
                    <path d="M110.252512,19.9353225 C92.5125687,6.03381422 79.2151935,0.645487737 70.3603866,3.7703431 C57.0781762,8.45762615 47.676084,11.9649803 47.676084,24.8367218 C47.676084,37.7084634 40.5397176,51.2154034 61.3713733,58.9765318 C82.2030289,66.7376602 99.1850986,74.2072766 104.718805,53.3784096 C108.407943,39.4924982 110.252512,28.3448025 110.252512,19.9353225 Z" id="palm"></path>
                </g>
                <path d="M162.631471,22.7494396 C160.196702,27.4961714 158.258445,33.9966638 155.876189,40.9639874 C154.056771,46.285196 151.978369,51.8787051 149.222003,57.1712073 C144.547802,66.1461444 147.461288,67.4424083 140.678639,74.8858616 C138.210171,77.5948224 133.791319,81.6553255 129.142123,85.6742445 C123.562937,90.4970781 117.652036,95.2600275 114.38189,97.5555742 C108.448889,101.720367 103.320702,105.62667 98.9973271,109.274484 C94.210522,113.313313 89.250162,118.658589 84.1162471,125.31031 C72.7740641,132.997598 71.0361784,139.983712 78.9025901,146.268651 C86.7690018,152.55359 97.2189758,150.381569 110.252512,139.752588 C115.834113,135.007739 119.811083,131.62992 122.183423,129.619131 C128.78918,124.020107 133.952941,119.667259 137.674707,116.560587 C140.408258,114.278809 144.883993,109.793677 149.880646,104.421649 C153.379932,100.659479 157.134705,96.4623249 160.725485,92.2823638 C168.119622,83.6749852 174.81838,75.1405088 177.159011,70.6271763 C179.619959,65.8818403 183.872201,57.029507 187.614185,47.9511904 C191.627527,38.2145395 195.053922,28.2179416 195.053922,22.7494396 C195.053922,12.1821832 193.883077,-2.84217094e-14 182.259368,-2.84217094e-14 C170.635659,-2.84217094e-14 172.60393,3.30751126 162.631471,22.7494396 Z" fill="url(#linearGradient-3)"></path>
            </g>
            <g id="head" transform="translate(-0.000000, 0.000000)">
                <g id="ears" transform="translate(386.405051, 0.000000)">
                    <path d="M24.9927574,175.692815 C59.8450414,163.715388 28.1395232,142.43953 18.3695661,124.835735 C0.434951671,92.5206217 -5.18566128,38.6398672 5.15802644,3.63678747 C7.78094646,-5.23918413 15.0066362,4.832261 16.668321,5.55466492 C20.8478573,7.37168439 25.5206159,7.89577834 29.6738327,9.77217742 C43.0040744,15.7947026 69.9586444,28.7044768 76.2452297,44.5666555 C81.4400297,57.6740648 74.4339226,100.733337 74.4227917,106.223537 C74.39956,117.682256 77.5784856,128.966506 77.9373854,140.419625 C78.2726771,151.119368 71.9997588,162.789168 76.4997348,172.502413 C78.6908098,177.231871 87.1688809,172.708585 92.053327,170.889032 C107.201913,165.245886 107.331904,141.745812 111.383593,129.238067 C114.887845,118.420282 125.719294,92.3867037 142.825572,74.1861973 C158.170919,57.8592639 179.623201,48.5345997 187.7745,50.5263158 C190.428868,51.1748931 192.703179,52.9962052 194.803687,54.7438283 C196.421141,56.0895498 198.275564,57.6161481 198.757605,59.6642595 C206.418005,92.2120346 193.493841,129.603205 172.34513,154.730991 C152.634223,178.150453 100.08411,177.659742 119.117214,214.279116 C121.519465,218.901006 124.725329,223.145871 128.350597,226.886206 C131.622818,230.262288 141.682482,231.192854 139.592752,235.404551 C136.945015,240.740871 128.120148,239.442332 122.1637,239.355439 C109.907226,239.176641 97.7003358,237.101717 85.69676,234.618312 C57.9741061,228.882807 35.9449272,214.055288 26.107732,187.909058 L24.9927574,175.692815 Z" fill="#EFDAA0"></path>
                    <path d="M16.3077721,14.3547835 C23.1339615,17.7815124 30.6058019,20.1471778 36.7863403,24.6349702 C73.1484064,51.0380749 67.3751749,51.3299472 65.8241563,89.0444453 C65.2268162,103.56934 68.9195596,125.620435 48.1042411,128.76087 C46.4806388,129.005825 44.4799286,128.894577 43.2777344,127.776177 C36.5878116,121.552554 30.6553346,114.519624 25.0442644,107.308214 C11.4654806,89.8566075 13.5430318,75.854519 12.1614604,54.5741582 C11.152765,39.0372091 8.17215622,25.9360917 11.7524344,11.0462176 C11.9100694,10.3906362 12.8653891,11.8077129 13.4218665,12.1884606 L16.3077721,14.3547835 Z" id="Path" fill="url(#linearGradient-4)"></path>
                    <path d="M124.086122,137.794284 C125.741124,161.096229 148.736926,169.190152 165.305338,151.454238 C172.619222,143.624978 179.698798,135.676526 188.265331,116.979406 C192.438911,107.870246 193.628666,97.9603666 192.438911,75.7495855 C191.249155,53.5388045 180.436885,60.2407398 174.928054,63.1091673 C140.039118,81.2757038 122.847342,120.352615 124.086122,137.794284 Z" id="Path-2" fill="url(#linearGradient-5)"></path>
                </g>
                <path d="M227.273776,141.553413 C316.86362,141.553413 426.226901,165.487007 490.48862,207.494819 C554.750339,249.502632 611.20737,307.018257 611.20737,340.752632 C611.20737,374.487007 577.949557,409.459663 505.95737,428.213569 C433.965182,446.967475 219.289401,451.619819 181.445651,439.916694 C143.601901,428.213569 61.9417448,405.526069 27.8831511,360.498725 C-6.17544268,315.471382 -3.86294268,309.080757 7.70346357,278.88935 C19.2698698,248.697944 41.4456511,202.475288 83.5315886,179.553413 C125.617526,156.631538 137.683932,141.553413 227.273776,141.553413 Z" id="face" fill="#EFDAA0"></path>
                <g id="eye_right" transform="translate(228.424915, 175.946833)">
                    <mask id="mask-8" fill="white">
                        <use xlink:href="#path-7"></use>
                    </mask>
                    <use fill="url(#radialGradient-6)" xlink:href="#path-7"></use>
                    <g id="Group" mask="url(#mask-8)">
                        <g transform="translate(13.575075, 19.617476)" id="cornea">
                            <path d="M24.147593,3.49014771 C28.2079805,0.872035604 32.5298784,-0.151780579 36.8802847,0.921145736 C46.1135301,3.19831049 53.819783,12.3053794 58.6584775,24.5554052 C63.5424923,36.9201675 65.500398,52.5118215 63.1097687,67.7100143 C60.6066185,83.6235472 56.2889119,96.9780456 49.8167388,106.08818 C43.9941321,114.283995 36.422563,119.025291 26.8474226,119.025291 C22.1967557,119.025291 18.2869865,117.902147 15.0283127,115.739445 C11.6375288,113.489064 8.95482476,110.118238 6.86224936,105.746433 C2.24404002,96.0980759 0.5,81.6165331 0.5,63.4356916 C0.5,45.9281418 5.14878778,28.9203784 12.1588561,16.9843196 C15.6612128,11.020849 19.7501399,6.32559752 24.147593,3.49014771 Z" id="Oval" stroke="#979797" fill="#897643"></path>
                            <path d="M24.9846835,76 C31.8232481,76 35.6758468,68.9184454 37.2854351,58.6856448 C38.8950234,48.4528442 34.6470919,37.6908672 28.3823202,36.1458073 C22.1175485,34.6007474 16,45.5851688 16,57.2292114 C16,68.8732539 18.1461188,76 24.9846835,76 Z" id="Oval-Copy" fill="#3D2F0B"></path>
                        </g>
                    </g>
                </g>
                <g id="eye_left" transform="translate(125.112553, 236.953097) scale(-1, 1) translate(-125.112553, -236.953097) translate(51.800190, 172.959571)">
                    <mask id="mask-11" fill="white">
                        <use xlink:href="#path-10"></use>
                    </mask>
                    <use id="eye_right" fill="url(#radialGradient-9)" xlink:href="#path-10"></use>
                    <g id="cornea" mask="url(#mask-11)">
                        <g transform="translate(61.557160, 66.662697) rotate(-16.000000) translate(-61.557160, -66.662697) translate(35.557160, 17.401126)">
                            <path d="M19.4871646,2.94770066 C22.7271878,0.807485836 26.175809,-0.0334694088 29.6484093,0.843901784 C37.0547335,2.71514952 43.2258872,10.2075449 47.1053422,20.2691672 C51.0306625,30.4497443 52.6038521,43.2872052 50.6824936,55.800642 C48.6706688,68.9032685 45.2024869,79.8997306 40.000562,87.4008702 C35.3366008,94.1262699 29.2738766,98.0231408 21.6019295,98.0231408 C17.8832846,98.0231408 14.756532,97.1041227 12.1507165,95.3324317 C9.43471867,93.485828 7.28758158,90.7187368 5.61160388,87.1316947 C1.89929973,79.1863676 0.5,67.2605796 0.5,52.2892145 C0.5,37.8731907 4.23556381,23.8683823 9.8701072,14.0399122 C12.6799609,9.13861642 15.9589814,5.27826109 19.4871646,2.94770066 Z" id="Oval" stroke="#979797" stroke-width="1" fill="#897643"></path>
                            <path d="M24.2238194,62.787098 C29.7262542,62.787098 32.8261259,56.9498648 34.1212302,48.5151005 C35.4163345,40.0803363 31.9983708,31.2093788 26.9576204,29.935806 C21.91687,28.6622333 16.9945781,37.7165488 16.9945781,47.3145814 C16.9945781,56.912614 18.7213847,62.787098 24.2238194,62.787098 Z" id="Oval-Copy" stroke="none" fill="#3D2F0B"></path>
                        </g>
                    </g>
                </g>
                <path d="M228.424915,273.135369 C205.244656,262.976867 184.190065,257.897616 165.261141,257.897616 C136.867754,257.897616 120.344129,265.956795 117.017171,273.135369 C113.690214,280.313944 127.88539,306.273265 140.793498,319.276587 C153.701606,332.279908 164.621262,337.082084 172.246311,337.082084 C179.87136,337.082084 195.670808,328.237138 208.799636,315.176014 C217.552188,306.468598 224.093948,292.45505 228.424915,273.135369 Z" id="nose" fill="#713D23"></path>
                <path d="M137.976244,367.146093 C156.784292,371.744819 184.334986,377.040504 208.797017,372.093299 C233.259049,367.146093 251.727058,360.64649 256.25353,355.420472 C260.780003,350.194453 239.259624,376.252581 231.292091,388.4987 C223.324557,400.744819 236.421407,416.295358 220.029403,416.295358 C203.6374,416.295358 207.623132,400.258356 203.223845,391.751588 C200.290986,386.080409 194.949063,382.200937 187.198074,380.113174 C141.844823,368.402637 125.437546,364.080276 137.976244,367.146093 Z" id="mouth-3" fill="#713D23"></path>
                <ellipse id="mouth-2" fill="#713D23" cx="223.324557" cy="383.244819" rx="24.5" ry="11.5"></ellipse>
                <path d="M150.884352,372.732172 C181.998428,374.645636 206.428039,372.896771 224.173183,367.485579 C241.918328,362.074386 254.157636,354.059786 260.891107,343.441779 C266.709682,354.014522 268.164326,363.777986 265.255039,372.732172 C260.891107,386.163451 232.436923,400.744819 215.430919,400.744819 C204.093583,400.744819 190.762906,392.955187 175.438887,377.375922 L150.884352,372.732172 Z" id="mouth" fill="#713D23"></path>
            </g>
        </g>
        <g id="Group" transform="translate(113.671875, 539.496094)">
            <ellipse id="Oval" fill="#EEBABA" cx="128.828125" cy="163.003906" rx="50.5" ry="37.5"></ellipse>
            <polygon id="Path-4" fill="#EEBABA" points="98.5898438 122.893842 69.5035677 22.5039062 16.7695313 22.5039062 2.84217094e-14 120.776765 25.6616015 122.893842 49.2949219 57.1597677 88.9648438 130.616053"></polygon>
            <polygon id="Path-4-Copy" fill="#EEBABA" transform="translate(182.460813, 62.808026) scale(-1, 1) translate(-182.460813, -62.808026) " points="225.921627 117.893842 198.533787 -4.26325641e-14 144.101314 17.5039062 139 95.3135219 152.993384 117.893842 176.626705 52.1597677 216.296627 125.616053"></polygon>
            <ellipse id="Oval" fill="#000000" cx="109.828125" cy="149.003906" rx="7.5" ry="9.5"></ellipse>
            <ellipse id="Oval-Copy-3" fill="#000000" cx="137.328125" cy="167.503906" rx="10" ry="4"></ellipse>
            <ellipse id="Oval-Copy-2" fill="#000000" cx="154.828125" cy="146.003906" rx="7.5" ry="9.5"></ellipse>
            <ellipse id="Oval" fill="#EEBABA" cx="131.5" cy="236.5" rx="50.5" ry="49.5"></ellipse>
            <path d="M11.568325,335.72113 C23.7297147,349.429104 163.148862,367.223271 188.035244,345.744346 C212.921627,324.265422 164.328125,250.535317 149.328125,240.5 C139.328125,233.809789 121.828125,236.00027 96.828125,247.071445 C31.8806652,297.032586 3.46073186,326.582481 11.568325,335.72113 Z" id="Path-6" fill="#EEBABA"></path>
        </g>
        <g id="arm_left-copy" transform="translate(298.340989, 517.368355)">
            <g id="hand-left" transform="translate(-0.000000, 121.631645)" fill="#EFDAA0">
                <ellipse id="thumb" cx="40.6590107" cy="11.5" rx="22" ry="11.5"></ellipse>
                <g id="Group" transform="translate(3.359363, 32.209375)">
                    <g id="finger-1" transform="translate(22.000000, 14.000000) rotate(-19.000000) translate(-22.000000, -14.000000) ">
                        <ellipse cx="22" cy="14" rx="22" ry="14"></ellipse>
                    </g>
                </g>
                <g id="Group" transform="translate(29.841736, 44.627547)">
                    <g id="finger-1-copy" transform="translate(13.500000, 25.500000) rotate(49.000000) translate(-13.500000, -25.500000) ">
                        <ellipse id="finger-1" cx="13.5" cy="25.5" rx="13.5" ry="25.5"></ellipse>
                    </g>
                </g>
                <g id="Group" transform="translate(65.438801, 59.740636)">
                    <g id="finger-1-copy-2" transform="translate(13.500000, 19.500000) rotate(24.000000) translate(-13.500000, -19.500000) ">
                        <ellipse id="finger-1" cx="13.5" cy="19.5" rx="13.5" ry="19.5"></ellipse>
                    </g>
                </g>
                <path d="M110.252512,19.9353225 C92.5125687,6.03381422 79.2151935,0.645487737 70.3603866,3.7703431 C57.0781762,8.45762615 47.676084,11.9649803 47.676084,24.8367218 C47.676084,37.7084634 40.5397176,51.2154034 61.3713733,58.9765318 C82.2030289,66.7376602 99.1850986,74.2072766 104.718805,53.3784096 C108.407943,39.4924982 110.252512,28.3448025 110.252512,19.9353225 Z" id="palm"></path>
            </g>
            <path d="M162.631471,22.7494396 C160.196702,27.4961714 158.258445,33.9966638 155.876189,40.9639874 C154.056771,46.285196 151.978369,51.8787051 149.222003,57.1712073 C144.547802,66.1461444 147.461288,67.4424083 140.678639,74.8858616 C138.210171,77.5948224 133.791319,81.6553255 129.142123,85.6742445 C123.562937,90.4970781 117.652036,95.2600275 114.38189,97.5555742 C108.448889,101.720367 103.320702,105.62667 98.9973271,109.274484 C94.210522,113.313313 89.250162,118.658589 84.1162471,125.31031 C72.7740641,132.997598 71.0361784,139.983712 78.9025901,146.268651 C86.7690018,152.55359 97.2189758,150.381569 110.252512,139.752588 C115.834113,135.007739 119.811083,131.62992 122.183423,129.619131 C128.78918,124.020107 133.952941,119.667259 137.674707,116.560587 C140.408258,114.278809 144.883993,109.793677 149.880646,104.421649 C153.379932,100.659479 157.134705,96.4623249 160.725485,92.2823638 C168.119622,83.6749852 174.81838,75.1405088 177.159011,70.6271763 C179.619959,65.8818403 183.872201,57.029507 187.614185,47.9511904 C191.627527,38.2145395 195.053922,28.2179416 195.053922,22.7494396 C195.053922,12.1821832 193.883077,-2.84217094e-14 182.259368,-2.84217094e-14 C170.635659,-2.84217094e-14 172.60393,3.30751126 162.631471,22.7494396 Z" id="arm_left" fill="url(#linearGradient-3)"></path>
        </g>
    </g>
</svg>